# xmcd
#
# Track frame offsets:
#       150
#       13579
#       23409
#       47624
#       64663
#       74681
#       93194
#       115070
#       128311
#       150421
#       165464
#       188771
#
# Disc length: 2695 seconds
#
# Revision: 0
# Processed by: cddbd v1.5.2PL0 Copyright (c) Steve Scherf et al.
# Submitted via: WaveLab 6.10
#
DISCID=840a850c
DTITLE=Love Shalom Ministry  - Your Name Is Forever YaHuWaH
DYEAR=1900
DGENRE=
TTITLE0=01 Your Name Is Forever YaHuWaH
TTITLE1=02 Because I Love You YaHuWaH
TTITLE2=03 YaHuWaH Is My Rock, My Stronghold, and May Deliverer
TTITLE3=04 YaHuWaH Punishes Them That He Loves
TTITLE4=05 A Song of Ascents
TTITLE5=06 I Am YaHuWaH Your Elohim
TTITLE6=07 Consider You Ways
TTITLE7=08 Simple Conversations
TTITLE8=09 A Psalm A Song For The Sabbath Day
TTITLE9=10 I Am Kept In YaHuWaH's Arms
TTITLE10=11 Take Me As Your Bride 
TTITLE11=12 Ani Ma Amin
EXTD=
EXTT0=
EXTT1=
EXTT2=
EXTT3=
EXTT4=
EXTT5=
EXTT6=
EXTT7=
EXTT8=
EXTT9=
EXTT10=
EXTT11=
PLAYORDER=
